REM DIRINDEX 1\2,1\3
REM DIRNAME cjc039,folder01,folder02
TITLE ""
FILE "1841-1860.mp3" MP3
  TRACK 01 AUDIO
    TITLE "0:"
    INDEX 01 00:00:00
  TRACK 02 AUDIO
    TITLE "2:cjc039_2681"
    INDEX 01 00:00:25
  TRACK 03 AUDIO
    TITLE "0:"
    INDEX 01 00:01:17
  TRACK 04 AUDIO
    TITLE "3:cjc039_2682"
    INDEX 01 00:01:69
  TRACK 05 AUDIO
    TITLE "0:"
    INDEX 01 00:04:33
  TRACK 06 AUDIO
    TITLE "2:cjc039_2683"
    INDEX 01 00:06:06
  TRACK 07 AUDIO
    TITLE "0:"
    INDEX 01 00:07:27
  TRACK 08 AUDIO
    TITLE "3:cjc039_2684"
    INDEX 01 00:08:05
  TRACK 09 AUDIO
    TITLE "0:"
    INDEX 01 00:12:03
  TRACK 10 AUDIO
    TITLE "2:cjc039_2685"
    INDEX 01 00:13:57
  TRACK 11 AUDIO
    TITLE "0:"
    INDEX 01 00:14:68
  TRACK 12 AUDIO
    TITLE "3:cjc039_2686"
    INDEX 01 00:15:46
  TRACK 13 AUDIO
    TITLE "0:"
    INDEX 01 00:17:72
  TRACK 14 AUDIO
    TITLE "2:cjc039_2687"
    INDEX 01 00:19:46
  TRACK 15 AUDIO
    TITLE "0:"
    INDEX 01 00:21:02
  TRACK 16 AUDIO
    TITLE "3:cjc039_2688"
    INDEX 01 00:21:51
  TRACK 17 AUDIO
    TITLE "0:"
    INDEX 01 00:25:23
  TRACK 18 AUDIO
    TITLE "2:cjc039_2689"
    INDEX 01 00:26:71
  TRACK 19 AUDIO
    TITLE "0:"
    INDEX 01 00:28:00
  TRACK 20 AUDIO
    TITLE "3:cjc039_2690"
    INDEX 01 00:28:51
  TRACK 21 AUDIO
    TITLE "0:"
    INDEX 01 00:30:59
  TRACK 22 AUDIO
    TITLE "2:cjc039_2691"
    INDEX 01 00:32:35
  TRACK 23 AUDIO
    TITLE "0:"
    INDEX 01 00:33:50
  TRACK 24 AUDIO
    TITLE "3:cjc039_2692"
    INDEX 01 00:34:28
  TRACK 25 AUDIO
    TITLE "0:"
    INDEX 01 00:37:57
  TRACK 26 AUDIO
    TITLE "2:cjc039_2693"
    INDEX 01 00:39:27
  TRACK 27 AUDIO
    TITLE "0:"
    INDEX 01 00:40:38
  TRACK 28 AUDIO
    TITLE "3:cjc039_2694"
    INDEX 01 00:41:08
  TRACK 29 AUDIO
    TITLE "0:"
    INDEX 01 00:45:14
  TRACK 30 AUDIO
    TITLE "2:cjc039_2695"
    INDEX 01 00:46:64
  TRACK 31 AUDIO
    TITLE "0:"
    INDEX 01 00:48:20
  TRACK 32 AUDIO
    TITLE "3:cjc039_2696"
    INDEX 01 00:48:73
  TRACK 33 AUDIO
    TITLE "0:"
    INDEX 01 00:52:47
  TRACK 34 AUDIO
    TITLE "2:cjc039_2697"
    INDEX 01 00:54:23
  TRACK 35 AUDIO
    TITLE "0:"
    INDEX 01 00:55:20
  TRACK 36 AUDIO
    TITLE "3:cjc039_2698"
    INDEX 01 00:55:71
  TRACK 37 AUDIO
    TITLE "0:"
    INDEX 01 00:58:67
  TRACK 38 AUDIO
    TITLE "2:cjc039_2699"
    INDEX 01 01:00:41
  TRACK 39 AUDIO
    TITLE "0:"
    INDEX 01 01:01:56
  TRACK 40 AUDIO
    TITLE "3:cjc039_2700"
    INDEX 01 01:02:34
  TRACK 41 AUDIO
    TITLE "0:"
    INDEX 01 01:05:60
  TRACK 42 AUDIO
    TITLE "2:cjc039_2701"
    INDEX 01 01:07:33
  TRACK 43 AUDIO
    TITLE "0:"
    INDEX 01 01:08:29
  TRACK 44 AUDIO
    TITLE "3:cjc039_2702"
    INDEX 01 01:09:05
  TRACK 45 AUDIO
    TITLE "0:"
    INDEX 01 01:12:56
  TRACK 46 AUDIO
    TITLE "2:cjc039_2703"
    INDEX 01 01:14:27
  TRACK 47 AUDIO
    TITLE "0:"
    INDEX 01 01:18:06
  TRACK 48 AUDIO
    TITLE "3:cjc039_2704"
    INDEX 01 01:18:56
  TRACK 49 AUDIO
    TITLE "0:"
    INDEX 01 01:22:50
  TRACK 50 AUDIO
    TITLE "2:cjc039_2705"
    INDEX 01 01:24:24
  TRACK 51 AUDIO
    TITLE "0:"
    INDEX 01 01:25:35
  TRACK 52 AUDIO
    TITLE "3:cjc039_2706"
    INDEX 01 01:26:13
  TRACK 53 AUDIO
    TITLE "0:"
    INDEX 01 01:29:50
  TRACK 54 AUDIO
    TITLE "2:cjc039_2707"
    INDEX 01 01:31:26
  TRACK 55 AUDIO
    TITLE "0:"
    INDEX 01 01:32:35
  TRACK 56 AUDIO
    TITLE "3:cjc039_2708"
    INDEX 01 01:33:09
  TRACK 57 AUDIO
    TITLE "0:"
    INDEX 01 01:36:62
  TRACK 58 AUDIO
    TITLE "2:cjc039_2709"
    INDEX 01 01:38:38
  TRACK 59 AUDIO
    TITLE "0:"
    INDEX 01 01:39:41
  TRACK 60 AUDIO
    TITLE "3:cjc039_2710"
    INDEX 01 01:40:23
  TRACK 61 AUDIO
    TITLE "0:"
    INDEX 01 01:43:62
  TRACK 62 AUDIO
    TITLE "2:cjc039_2711"
    INDEX 01 01:45:42
  TRACK 63 AUDIO
    TITLE "0:"
    INDEX 01 01:46:74
  TRACK 64 AUDIO
    TITLE "3:cjc039_2712"
    INDEX 01 01:47:50
  TRACK 65 AUDIO
    TITLE "0:"
    INDEX 01 01:51:36
  TRACK 66 AUDIO
    TITLE "2:cjc039_2713"
    INDEX 01 01:53:08
  TRACK 67 AUDIO
    TITLE "0:"
    INDEX 01 01:54:23
  TRACK 68 AUDIO
    TITLE "3:cjc039_2714"
    INDEX 01 01:54:74
  TRACK 69 AUDIO
    TITLE "0:"
    INDEX 01 01:57:53
  TRACK 70 AUDIO
    TITLE "2:cjc039_2715"
    INDEX 01 01:59:34
  TRACK 71 AUDIO
    TITLE "0:"
    INDEX 01 02:00:59
  TRACK 72 AUDIO
    TITLE "3:cjc039_2716"
    INDEX 01 02:01:39
  TRACK 73 AUDIO
    TITLE "0:"
    INDEX 01 02:05:34
  TRACK 74 AUDIO
    TITLE "2:cjc039_2717"
    INDEX 01 02:07:10
  TRACK 75 AUDIO
    TITLE "0:"
    INDEX 01 02:08:21
  TRACK 76 AUDIO
    TITLE "3:cjc039_2718"
    INDEX 01 02:09:01
  TRACK 77 AUDIO
    TITLE "0:"
    INDEX 01 02:12:50
  TRACK 78 AUDIO
    TITLE "2:cjc039_2719"
    INDEX 01 02:14:26
  TRACK 79 AUDIO
    TITLE "0:"
    INDEX 01 02:15:33
  TRACK 80 AUDIO
    TITLE "3:cjc039_2720"
    INDEX 01 02:16:11
  TRACK 81 AUDIO
    TITLE "0:"
    INDEX 01 02:19:44
